<svg width="32" height="32" viewBox="0 0 32 32" fill="none" xmlns="http://www.w3.org/2000/svg">
  <path d="M18.6667 2.66675H8.00004C7.29281 2.66675 6.61452 2.94761 6.11442 3.44771C5.61433 3.94781 5.33337 4.6261 5.33337 5.33341V26.6667C5.33337 27.3741 5.61433 28.0524 6.11442 28.5525C6.61452 29.0525 7.29281 29.3334 8.00004 29.3334H24C24.7073 29.3334 25.3856 29.0525 25.8857 28.5525C26.3858 28.0524 26.6667 27.3741 26.6667 26.6667V10.6667L18.6667 2.66675Z" stroke="#6DDD11" stroke-width="2" stroke-linecap="round" stroke-linejoin="round"/>
  <path d="M18.6666 2.66675V10.6667H26.6666" stroke="#6DDD11" stroke-width="2" stroke-linecap="round" stroke-linejoin="round"/>
  <path d="M12 20.0001C12 19.2971 12.2634 18.623 12.7322 18.1229C13.201 17.6227 13.8435 17.3334 14.5142 17.3334C15.1849 17.3334 15.8273 17.6227 16.2961 18.1229C16.765 18.623 17.0284 19.2971 17.0284 20.0001C17.0284 20.7031 16.765 21.3772 16.2961 21.8773C15.8273 22.3775 15.1849 22.6667 14.5142 22.6667C13.8435 22.6667 13.201 22.3775 12.7322 21.8773C12.2634 21.3772 12 20.7031 12 20.0001Z" stroke="#6DDD11" stroke-width="2" stroke-linecap="round" stroke-linejoin="round"/>
  <path d="M12 17.3334V15.3334H17.0284V17.3334" stroke="#6DDD11" stroke-width="2" stroke-linecap="round" stroke-linejoin="round"/>
  <path d="M12 22.6667V24.6667H17.0284V22.6667" stroke="#6DDD11" stroke-width="2" stroke-linecap="round" stroke-linejoin="round"/>
</svg> 