<?xml version="1.0" encoding="UTF-8"?>
<svg version="1.1" xmlns="http://www.w3.org/2000/svg" width="2500" height="417">
<path d="M0 0 C2.47016202 -0.00570947 4.94032141 -0.01267596 7.41047668 -0.02079773 C13.3982273 -0.03682766 19.38582676 -0.03884275 25.37358402 -0.03358483 C30.24539069 -0.02952664 35.11716649 -0.03100614 39.98897171 -0.03633308 C40.68504589 -0.03708151 41.38112007 -0.03782993 42.09828741 -0.03860103 C43.51282251 -0.04013267 44.92735759 -0.04167102 46.34189267 -0.043216 C59.5766826 -0.05691167 72.81141324 -0.05152406 86.04620178 -0.04003078 C98.124472 -0.0301016 110.20258896 -0.04303882 122.28083555 -0.06696498 C134.71712191 -0.09141262 147.15333705 -0.10094997 159.58964694 -0.09431225 C166.55795222 -0.09083256 173.52613976 -0.09296887 180.49442673 -0.11056328 C187.04943978 -0.12691056 193.60420922 -0.12201591 200.15923119 -0.10325813 C202.55565144 -0.09958741 204.95209355 -0.10263607 207.34849358 -0.11314392 C223.19577515 -0.17729115 237.47419037 0.54388372 251.78759766 8.09155273 C252.44961182 8.43331543 253.11162598 8.77507813 253.79370117 9.12719727 C273.16067678 19.49288544 285.17113768 36.6197375 291.62744141 57.12670898 C293.36964621 63.40014174 293.68388773 69.03673965 293.67803955 75.52270508 C293.68249623 77.06506285 293.68249623 77.06506285 293.68704295 78.63857937 C293.69572446 82.08905788 293.69723776 85.53950167 293.69873047 88.98999023 C293.70335912 91.46221491 293.70838385 93.93443886 293.71377563 96.40666199 C293.72689928 103.12810012 293.73338179 109.84952468 293.73778629 116.57097244 C293.74055217 120.7720782 293.74479024 124.97318168 293.74929047 129.17428589 C293.7614829 140.81701004 293.77178114 152.45973237 293.77516556 164.10246277 C293.77538512 164.8473225 293.77560469 165.59218224 293.77583091 166.35961348 C293.77604919 167.10621385 293.77626747 167.85281422 293.77649236 168.62203884 C293.77693582 170.13482603 293.77738238 171.64761321 293.77783203 173.16040039 C293.77805346 173.91078838 293.77827489 174.66117638 293.77850303 175.4343034 C293.78244663 187.57906745 293.79988734 199.72377133 293.82319155 211.86851215 C293.84695129 224.35198259 293.85936957 236.83542292 293.86053348 249.31891632 C293.86144783 256.32191749 293.86713911 263.32484033 293.88535309 270.32781982 C293.90243973 276.9204304 293.90397223 283.51291914 293.89521408 290.10555458 C293.89444551 292.5189383 293.89876254 294.9323301 293.90867233 297.34569359 C293.96743806 312.5550805 293.68971503 326.17197508 286.85009766 340.09155273 C286.50197021 340.81213867 286.15384277 341.53272461 285.79516602 342.27514648 C282.77035444 348.32613002 279.15749811 353.44848074 274.53759766 358.40405273 C273.87373047 359.1581543 273.20986328 359.91225586 272.52587891 360.68920898 C259.39724367 374.83707283 240.4535015 383.57205373 221.17859554 384.5200789 C214.16140596 384.71782623 207.1418841 384.68723802 200.12255859 384.67871094 C197.75268901 384.68306332 195.38282083 384.68824821 193.01295471 384.69419861 C186.6016225 384.70754424 180.19034939 384.70817214 173.779006 384.70563531 C169.76662028 384.70434743 165.75424337 384.70698272 161.74185944 384.71062279 C161.0736921 384.71121798 160.40552476 384.71181317 159.71710993 384.71242639 C158.35926904 384.71363827 157.00142815 384.71485241 155.64358726 384.71606877 C142.93622697 384.72692176 130.22889327 384.72479266 117.52153149 384.71868392 C105.92888812 384.71351866 94.33632888 384.72476387 82.74370214 384.74378214 C70.80578605 384.76321486 58.86790965 384.77140693 46.92997766 384.76765889 C40.24165537 384.76575482 33.55341519 384.7684255 26.86510468 384.78237343 C20.57113007 384.79500875 14.27732298 384.79295386 7.98335075 384.77996254 C5.68410369 384.77760948 3.38484463 384.78028539 1.08561134 384.78858566 C-22.87494376 384.86879166 -43.33927945 381.97988471 -62.46240234 366.40405273 C-63.09275391 365.93612305 -63.72310547 365.46819336 -64.37255859 364.98608398 C-78.80490692 353.77553551 -86.9909052 334.87315998 -89.98316574 317.3553009 C-90.54924348 312.68805803 -90.60729185 308.13401894 -90.60284424 303.43798828 C-90.60581536 302.45028757 -90.60878648 301.46258686 -90.61184764 300.44495583 C-90.62050182 297.14355239 -90.62204012 293.84218535 -90.62353516 290.54077148 C-90.62816572 288.17001773 -90.63319071 285.79926472 -90.63858032 283.42851257 C-90.65168502 276.99217609 -90.65818301 270.55584655 -90.66259098 264.11949921 C-90.66536016 260.09425221 -90.66959878 256.06900759 -90.67409515 252.04376221 C-90.68628426 240.88134919 -90.69658352 229.71893808 -90.69997025 218.55651855 C-90.70018981 217.8429083 -90.70040938 217.12929804 -90.7006356 216.39406323 C-90.70085387 215.67881946 -90.70107215 214.96357569 -90.70129704 214.22665787 C-90.7017405 212.77748871 -90.70218706 211.32831955 -90.70263672 209.87915039 C-90.70285815 209.16032417 -90.70307958 208.44149795 -90.70330772 207.70088911 C-90.70725085 196.06845771 -90.72469165 184.43608913 -90.74799624 172.80368197 C-90.77177395 160.83768414 -90.78417505 148.87171774 -90.78533816 136.90569592 C-90.78625145 130.19664415 -90.79223912 123.48768664 -90.81015778 116.77865601 C-90.82670094 110.4617788 -90.82876366 104.14505627 -90.82001877 97.82816505 C-90.81925168 95.51882321 -90.82354741 93.20947283 -90.83347702 90.90015221 C-90.94291842 63.84518671 -86.40111032 41.75196523 -67.08740234 21.52905273 C-47.58737743 2.86861223 -25.68827837 -0.05369555 0 0 Z " fill="#7BB3E1" transform="translate(106.46240234375,-0.404052734375)"/>
<path d="M0 0 C0.0309375 0.62003906 0.061875 1.24007813 0.09375 1.87890625 C1.66647709 12.26797849 9.33722332 17.523399 16.81054688 24.06835938 C20.30698245 27.15308264 23.7038541 30.3289401 27.0625 33.5625 C27.67585205 34.12171143 28.2892041 34.68092285 28.92114258 35.25708008 C30.59765625 36.87890625 30.59765625 36.87890625 33 40 C32.87109375 43.40234375 32.87109375 43.40234375 32 46 C32.9075 46.474375 33.815 46.94875 34.75 47.4375 C39.08613938 50.45127063 40.78525436 53.90840657 42 59 C42.40212934 62.92906191 42.52019532 66.86765421 42.63574219 70.81396484 C42.86185743 77.55618943 44.06282224 83.51466576 46 90 C49.3 90.66 52.6 91.32 56 92 C56.33 93.65 56.66 95.3 57 97 C57.33 97.99 57.66 98.98 58 100 C59.65 100 61.3 100 63 100 C63 100.66 63 101.32 63 102 C62.505 102.474375 62.01 102.94875 61.5 103.4375 C59.65373409 104.99969942 59.65373409 104.99969942 60 108 C60.825 108.37125 61.65 108.7425 62.5 109.125 C65 111 65 111 65.33203125 113.19140625 C65.3141355 115.47848318 65.21477505 117.72338443 65 120 C65.66 119.67 66.32 119.34 67 119 C66.7834375 117.453125 66.7834375 117.453125 66.5625 115.875 C66.53772639 111.29188292 68.26599261 107.60047201 70.25 103.5625 C70.5497876 102.93520996 70.8495752 102.30791992 71.15844727 101.66162109 C73.43299818 97.25260311 73.43299818 97.25260311 76.04296875 96.08984375 C78.6956126 95.96806569 81.34484186 96 84 96 C84.99 95.67 85.98 95.34 87 95 C91.09019072 100.82542315 91.09019072 100.82542315 90.83203125 104.1875 C90.60580078 105.30125 90.60580078 105.30125 90.375 106.4375 C89.85947188 109.33918687 89.68620309 110.49069099 91.25390625 113.03515625 C92.89102715 115.00201371 92.89102715 115.00201371 94.65234375 116.6875 C97.21784904 121.08975835 96.45727075 125.85415063 95.42553711 130.69580078 C94.67838645 133.50694586 93.85865565 136.28347259 93 139.0625 C92.71382812 140.02349609 92.42765625 140.98449219 92.1328125 141.97460938 C91.43272118 144.3199153 90.7216778 146.66126488 90 149 C91.65 149.33 93.3 149.66 95 150 C95.14695312 149.195625 95.14695312 149.195625 95.296875 148.375 C96.37952863 142.70040164 97.61825029 137.06127306 98.9375 131.4375 C99.09508789 130.72271484 99.25267578 130.00792969 99.41503906 129.27148438 C99.90234375 127.24609375 99.90234375 127.24609375 101 124 C104 123 104 123 108 124 C108 127.63 108 131.26 108 135 C108.99 135 109.98 135 111 135 C110.98839844 134.30132812 110.97679687 133.60265625 110.96484375 132.8828125 C110.95582031 131.97273437 110.94679688 131.06265625 110.9375 130.125 C110.92009766 128.76761719 110.92009766 128.76761719 110.90234375 127.3828125 C111 125 111 125 112 123 C113.9375 123.5625 113.9375 123.5625 116 125 C116.75 128.625 116.75 128.625 117 132 C117.33 131.01 117.66 130.02 118 129 C118.99 129 119.98 129 121 129 C121.45375 129.94875 121.9075 130.8975 122.375 131.875 C123.80238254 135.00313679 123.80238254 135.00313679 126 137 C126.125 139.625 126.125 139.625 126 142 C124.02 142.33 122.04 142.66 120 143 C120 143.66 120 144.32 120 145 C122.31 145 124.62 145 127 145 C128.25664978 147.90600261 129 149.79604584 129 153 C127.741875 152.938125 126.48375 152.87625 125.1875 152.8125 C121.83041021 152.76367078 121.83041021 152.76367078 119 154.5 C118.67 154.995 118.34 155.49 118 156 C118.928125 155.9175 119.85625 155.835 120.8125 155.75 C124 156 124 156 125.875 158 C126.24625 158.66 126.6175 159.32 127 160 C126.65195312 160.57105469 126.30390625 161.14210937 125.9453125 161.73046875 C124.80766797 164.46175583 125.06886189 165.51092128 125.875 168.3125 C126.92331266 172.37135158 127.17782509 175.82111035 127 180 C128.65 180 130.3 180 132 180 C131.37343743 184.26062544 130.1323664 188.8676336 127 192 C124.98035801 192.07244053 122.95832876 192.08377188 120.9375 192.0625 C119.83277344 192.05347656 118.72804688 192.04445312 117.58984375 192.03515625 C116.30787109 192.01775391 116.30787109 192.01775391 115 192 C115.66 192.99 116.32 193.98 117 195 C117.433125 196.7015625 117.433125 196.7015625 117.875 198.4375 C118.71054552 202.03733704 118.71054552 202.03733704 121.125 204.125 C123 206 123 206 123.25 208.75 C123.1675 209.4925 123.085 210.235 123 211 C121.02 211.33 119.04 211.66 117 212 C117.268125 213.0725 117.53625 214.145 117.8125 215.25 C117.874375 216.4875 117.93625 217.725 118 219 C115.5625 221.4375 115.5625 221.4375 113 223 C113.33 224.98 113.66 226.96 114 229 C113.1646875 229.32871094 113.1646875 229.32871094 112.3125 229.6640625 C92.79650307 237.77375041 83.69488048 256.13864627 74.24414062 273.90771484 C56.73509552 306.75496816 56.73509552 306.75496816 44 311 C36.21266524 311.69529775 29.10886624 309.89472713 22.66015625 305.3515625 C20.6645582 303.64954406 18.81689745 301.89026385 17 300 C16.2575 299.236875 15.515 298.47375 14.75 297.6875 C7.94212671 287.23255174 8.54276625 277.08152258 9 265 C7.35 265 5.7 265 4 265 C3.58649805 279.24284477 4.33417712 292.92083904 13.94921875 304.30859375 C15.58024448 305.95285296 17.22755459 307.51072634 19 309 C15.25 311 15.25 311 13 311 C12.86722656 311.57234375 12.73445312 312.1446875 12.59765625 312.734375 C11.66703459 316.26222182 10.30550009 319.59434759 9 323 C6.36 323.33 3.72 323.66 1 324 C0.7834375 325.7015625 0.7834375 325.7015625 0.5625 327.4375 C0 331 0 331 -1 332 C-0.67045176 335.42730167 -0.23293807 338.42450595 1.0625 341.625 C2.12973636 344.32866545 2.37894577 346.12001217 2 349 C0.875 350.6328125 0.875 350.6328125 -1 352 C-11.30674696 353.40610463 -18.0324997 349.86148881 -26.0390625 344.03125 C-28.64440033 342.243947 -30.04958757 341.67241958 -33 341 C-33.4125 340.13375 -33.825 339.2675 -34.25 338.375 C-35.97969006 335.03916917 -37.23254234 333.76775343 -40.0625 331.4375 C-43.27990214 328.77583096 -44.63753219 326.98259822 -46 323 C-49.37802315 318.96513902 -52.02080863 317.48316339 -57 316 C-58.36733028 315.04701223 -59.70264493 314.04625409 -61 313 C-61.78375 312.54625 -62.5675 312.0925 -63.375 311.625 C-66 310 -66 310 -68.875 307.4375 C-75.73771198 302.08458466 -83.63447315 302.49689839 -92 303 C-92.66 303.33 -93.32 303.66 -94 304 C-97.97288453 304.44143161 -99.53956856 304.32030013 -102.875 302 C-103.57625 301.34 -104.2775 300.68 -105 300 C-104.875 298.125 -104.875 298.125 -104 296 C-100.9375 294.75 -100.9375 294.75 -98 294 C-100.645747 287.83065445 -103.08917358 283.46283234 -108.4375 279.359375 C-110.77965539 277.32169981 -111.72038019 274.79189777 -113 272 C-113.89296886 270.93794828 -114.81075987 269.89635949 -115.75 268.875 C-118 266 -118 266 -117.91015625 263.90234375 C-117 262 -117 262 -115.07421875 261.19921875 C-114.28660156 261.03035156 -113.49898438 260.86148437 -112.6875 260.6875 C-108.57922972 259.5230803 -108.57922972 259.5230803 -106.1875 255.875 C-105.90132812 255.27171875 -105.61515625 254.6684375 -105.3203125 254.046875 C-102.12939289 249.10000554 -97.10960732 245.74634027 -92 243 C-87.60658601 242.07657387 -83.46949226 242 -79 242 C-78.34 241.67 -77.68 241.34 -77 241 C-76.731875 240.071875 -76.46375 239.14375 -76.1875 238.1875 C-74.77493274 234.39587209 -73.13577372 233.44743315 -70 231 C-68.19020859 227.88337092 -68.19020859 227.88337092 -67 225 C-63.60842209 225.58629027 -62.00351748 226.67584816 -59.5625 229.0625 C-49.28262204 238.33529195 -36.18814236 245.34062571 -22.62109375 248.19921875 C-21.2134375 248.49759644 -21.2134375 248.49759644 -19.77734375 248.80200195 C-17.92304984 249.17614465 -16.062013 249.51865407 -14.1953125 249.82495117 C-7.79682941 251.07982609 -7.79682941 251.07982609 -5.37548828 253.87597656 C-4.06640625 256.0390625 -4.06640625 256.0390625 -3.03735352 258.14697266 C-2.00095431 260.32802225 -2.00095431 260.32802225 1 262 C6.29835804 262.6490866 11.29106019 262.90678439 16.0625 260.375 C18.15700454 258.0575513 18.15700454 258.0575513 19.171875 254.9765625 C21 252 21 252 24.23046875 250.75 C25.54530318 250.47889318 26.86488289 250.23015745 28.1875 250 C29.63834234 249.68979026 31.08754782 249.37184178 32.53515625 249.046875 C33.27652832 248.88123047 34.01790039 248.71558594 34.78173828 248.54492188 C52.04853928 244.30328641 66.59619709 235.56629814 79 223 C79.75152344 222.2471875 80.50304687 221.494375 81.27734375 220.71875 C94.41230015 206.80225109 100.08587609 189.34562215 100.375 170.5 C100.41238281 169.57574219 100.44976562 168.65148437 100.48828125 167.69921875 C100.54795227 163.0647696 100.3908786 160.62641728 97.88671875 156.61328125 C94.88004684 153.89140911 91.91929422 151.76527986 88.4375 149.6875 C87.32246094 149.01074219 86.20742188 148.33398438 85.05859375 147.63671875 C82.54358299 146.29088285 80.72225488 145.598536 78 145 C78.02094727 145.5983667 78.04189453 146.1967334 78.06347656 146.81323242 C78.65462991 166.29323171 76.72620031 180.81969783 62.875 195.6875 C44.78986986 212.79505554 22.73684802 216.66797255 -1.18359375 216.3046875 C-18.79975405 215.72475133 -36.18441624 208.18859826 -49 196 C-50.81078934 194.06134171 -52.40584086 192.12554552 -54 190 C-53.566875 189.1646875 -53.566875 189.1646875 -53.125 188.3125 C-52.568125 187.1678125 -52.568125 187.1678125 -52 186 C-51.608125 185.2575 -51.21625 184.515 -50.8125 183.75 C-49.92434508 180.74393721 -50.21031457 178.6464418 -50.703125 175.58984375 C-51.1005572 172.12277076 -51.12250069 168.67236838 -51.125 165.1875 C-51.12757813 163.90230469 -51.13015625 162.61710938 -51.1328125 161.29296875 C-51 158 -51 158 -50 155 C-49.80258551 152.5464199 -49.68784713 150.08570681 -49.625 147.625 C-49.55152344 145.66433594 -49.55152344 145.66433594 -49.4765625 143.6640625 C-50.12218718 139.14468972 -51.71710758 138.0136331 -55 135 C-55 133.68 -55 132.36 -55 131 C-54.40960938 130.75765625 -53.81921875 130.5153125 -53.2109375 130.265625 C-49.21023563 127.97547057 -46.88431103 124.13578561 -45 120 C-45.40942142 116.5031287 -45.40942142 116.5031287 -47 114 C-46.01 113.34 -45.02 112.68 -44 112 C-44.33 111.01 -44.66 110.02 -45 109 C-44.67 108.401875 -44.34 107.80375 -44 107.1875 C-42.55129748 104.01846324 -43.18470094 102.41667187 -44 99 C-45.35385745 95.4438236 -46.88898144 91.9750792 -48.4375 88.5 C-54.03772763 75.81322841 -54.03772763 75.81322841 -55 72 C-53.625 69.625 -53.625 69.625 -52 68 C-52.66 68 -53.32 68 -54 68 C-54.33 64.37 -54.66 60.74 -55 57 C-51.535 56.505 -51.535 56.505 -48 56 C-49.23350032 50.44924855 -50.94802887 45.4237431 -53.1953125 40.19921875 C-54 38 -54 38 -54 35 C-51.69 35 -49.38 35 -47 35 C-47 33.35 -47 31.7 -47 30 C-50.3 30 -53.6 30 -57 30 C-56.01 29.01 -55.02 28.02 -54 27 C-54.23283149 23.85078091 -54.23283149 23.85078091 -55 21 C-51.7 20.67 -48.4 20.34 -45 20 C-43.8517315 22.296537 -43.88438825 23.58313167 -43.90234375 26.1328125 C-43.90717773 27.34130859 -43.90717773 27.34130859 -43.91210938 28.57421875 C-43.92467773 29.83685547 -43.92467773 29.83685547 -43.9375 31.125 C-43.94201172 31.97449219 -43.94652344 32.82398438 -43.95117188 33.69921875 C-43.96297126 35.79950909 -43.98090694 37.8997633 -44 40 C-41.41638482 40.05407567 -38.83390745 40.093707 -36.25 40.125 C-35.15558594 40.15013672 -35.15558594 40.15013672 -34.0390625 40.17578125 C-28.68595978 40.25897427 -28.68595978 40.25897427 -24 38 C-21.52657734 34.28986601 -21.61496514 32.38939738 -22 28 C-22.98028616 26.65210653 -23.97971135 25.31787285 -25 24 C-25.1875 20.75 -25.1875 20.75 -25 18 C-23.02 18.66 -21.04 19.32 -19 20 C-16.74397651 18.18850642 -16.74397651 18.18850642 -16.8671875 15.609375 C-16.87105469 14.19398437 -16.87105469 14.19398437 -16.875 12.75 C-16.64287734 9.34851029 -16.5049525 7.58911125 -14.265625 4.9765625 C-9.60422318 1.48901734 -5.88798581 -0.15913475 0 0 Z " fill="#FDFDFE" transform="translate(196,16)"/>
<path d="M0 0 C20.79 0 41.58 0 63 0 C66.37497244 10.12491731 66.37497244 10.12491731 67.71972656 15.09863281 C68.026604 16.22855148 68.33348145 17.35847015 68.6496582 18.52262878 C69.14018677 20.34447441 69.14018677 20.34447441 69.640625 22.203125 C69.99839035 23.52429731 70.35638904 24.84540646 70.71459961 26.16645813 C71.69041478 29.76776834 72.6629927 33.3699458 73.63502502 36.97227859 C74.68281732 40.85305265 75.73366981 44.732998 76.78417969 48.61303711 C78.58949545 55.28244437 80.39300134 61.95233879 82.1953125 68.62255859 C84.7482699 78.07061297 87.30473646 87.51771493 89.86231422 96.9645195 C93.92674241 111.97721402 97.98957786 126.99033905 102.05078125 142.00390625 C102.29241816 142.89719006 102.53405506 143.79047386 102.7830143 144.71082687 C105.83102025 155.97893129 108.8780874 167.24728925 111.92435265 178.51586437 C114.00898778 186.22717492 116.09409326 193.93835821 118.17948341 201.64946461 C119.41430633 206.21558786 120.64885493 210.78178487 121.88269043 215.34817505 C123.25305692 220.41982453 124.62436908 225.49121772 125.99609375 230.5625 C126.2113483 231.35868681 126.42660286 232.15487362 126.64838028 232.9751873 C128.88767118 241.25541297 131.13987847 249.53167765 133.43408203 257.796875 C133.62508138 258.48559189 133.81608072 259.17430878 134.01286793 259.88389587 C134.90262637 263.09044869 135.79566462 266.29599692 136.69371033 269.50024414 C136.99982742 270.59973389 137.30594452 271.69922363 137.62133789 272.83203125 C137.88926651 273.78827393 138.15719513 274.7445166 138.4332428 275.72973633 C139 278 139 278 139 280 C121.84 280 104.68 280 87 280 C83.48002425 267.68008488 79.96779886 255.38501437 76.70214844 242.99926758 C76.1069304 240.74403577 75.50669783 238.49017257 74.90625 236.23632812 C74.52314523 234.78913984 74.14032072 233.34187733 73.7578125 231.89453125 C73.57977081 231.22702347 73.40172913 230.55951569 73.21829224 229.8717804 C72 225.22973527 72 225.22973527 72 223 C45.27 223 18.54 223 -9 223 C-9.66 226.63 -10.32 230.26 -11 234 C-11.8916693 237.64329077 -12.80993267 241.26268319 -13.78515625 244.8828125 C-14.17688271 246.35414139 -14.17688271 246.35414139 -14.57652283 247.85519409 C-15.12320429 249.90435261 -15.67201772 251.95294347 -16.22290039 254.00097656 C-17.06925557 257.15013646 -17.9071346 260.30146882 -18.74414062 263.453125 C-19.27814862 265.45065382 -19.81263613 267.44805453 -20.34765625 269.4453125 C-20.59870621 270.38996368 -20.84975616 271.33461487 -21.1084137 272.30789185 C-21.34213181 273.17324554 -21.57584991 274.03859924 -21.81665039 274.93017578 C-22.02157608 275.69419708 -22.22650177 276.45821838 -22.43763733 277.24539185 C-23 279 -23 279 -24 280 C-25.59610982 280.09333705 -27.19633428 280.11745372 -28.79516602 280.11352539 C-29.81614883 280.11344986 -30.83713165 280.11337433 -31.88905334 280.11329651 C-32.9994548 280.10813522 -34.10985626 280.10297394 -35.25390625 280.09765625 C-36.38448959 280.0962413 -37.51507294 280.09482635 -38.67991638 280.09336853 C-42.30747065 280.08775019 -45.93496424 280.07519458 -49.5625 280.0625 C-52.01497307 280.05748736 -54.4674471 280.05292405 -56.91992188 280.04882812 C-62.94663545 280.0377748 -68.97331339 280.02101884 -75 280 C-73.55800025 272.13265698 -71.60785828 264.44671421 -69.52734375 256.7265625 C-69.17339313 255.40449753 -68.81968696 254.0823671 -68.46620178 252.76017761 C-67.49871281 249.14515496 -66.52695603 245.53129204 -65.55426025 241.91766739 C-64.92999199 239.59709066 -64.30695734 237.27618616 -63.68432617 234.95516968 C-55.7448771 205.35962201 -47.70978305 175.7900484 -39.66249466 146.22367382 C-30.1852927 111.40314471 -20.77023608 76.5659987 -11.37566471 41.72309113 C-10.25505137 37.5671631 -9.13409818 33.41132678 -8.01312065 29.25549698 C-7.24326998 26.40066062 -6.4740366 23.54565845 -5.70484924 20.69064331 C-5.23953896 18.96522307 -4.77420336 17.23980966 -4.30883789 15.5144043 C-4.1027742 14.74881101 -3.89671051 13.98321772 -3.68440247 13.19442463 C-3.39378937 12.11763337 -3.39378937 12.11763337 -3.0973053 11.01908875 C-2.93251206 10.40759822 -2.76771883 9.79610769 -2.59793186 9.16608715 C-1.75290463 6.10486437 -0.87243558 3.05352454 0 0 Z M31 68 C27.77448365 80.37855943 24.54939208 92.75722944 21.32483864 105.13603973 C19.82744401 110.88436712 18.32990459 116.63265671 16.83203125 122.38085938 C15.38577841 127.93098648 13.93990987 133.48121358 12.49430466 139.0315094 C11.94346093 141.14615931 11.3924801 143.26077352 10.84135818 145.37535095 C10.06786372 148.34323774 9.29486234 151.31125255 8.52197266 154.27929688 C8.18210579 155.58265991 8.18210579 155.58265991 7.83537292 156.91235352 C7.62226974 157.73110962 7.40916656 158.54986572 7.18960571 159.39343262 C7.0070907 160.09399529 6.82457569 160.79455795 6.63652992 161.51634979 C5.74194284 165.00690272 4.8739446 168.50422161 4 172 C22.15 172 40.3 172 59 172 C55.87210957 158.62449797 55.87210957 158.62449797 52.55810547 145.29907227 C52.3461554 144.4707489 52.13420532 143.64242554 51.91583252 142.78900146 C51.23497275 140.13094584 50.55141881 137.47359584 49.8671875 134.81640625 C49.63063572 133.89672499 49.39408394 132.97704372 49.15036392 132.02949333 C47.90525187 127.18960722 46.65789829 122.35030536 45.40869141 117.51147461 C44.12050224 112.51963883 42.84058236 107.52571922 41.5623455 102.53132725 C40.57354058 98.67410544 39.57862536 94.81847915 38.58200455 90.96327019 C38.10681632 89.12062092 37.63397033 87.27736599 37.16350937 85.4335041 C36.50985898 82.87394683 35.8475938 80.31677133 35.18310547 77.76000977 C34.99086395 76.99909531 34.79862244 76.23818085 34.60055542 75.45420837 C33.55346925 71.32713182 33.55346925 71.32713182 31 68 Z " fill="#FFFFFF" transform="translate(2241,31)"/>
<path d="M0 0 C20.79 0 41.58 0 63 0 C66.37497244 10.12491731 66.37497244 10.12491731 67.71972656 15.09863281 C68.026604 16.22855148 68.33348145 17.35847015 68.6496582 18.52262878 C69.14018677 20.34447441 69.14018677 20.34447441 69.640625 22.203125 C69.99839035 23.52429731 70.35638904 24.84540646 70.71459961 26.16645813 C71.69041478 29.76776834 72.6629927 33.3699458 73.63502502 36.97227859 C74.68281732 40.85305265 75.73366981 44.732998 76.78417969 48.61303711 C78.58949545 55.28244437 80.39300134 61.95233879 82.1953125 68.62255859 C84.7482699 78.07061297 87.30473646 87.51771493 89.86231422 96.9645195 C93.92674241 111.97721402 97.98957786 126.99033905 102.05078125 142.00390625 C102.29241816 142.89719006 102.53405506 143.79047386 102.7830143 144.71082687 C105.83102025 155.97893129 108.8780874 167.24728925 111.92435265 178.51586437 C114.00898778 186.22717492 116.09409326 193.93835821 118.17948341 201.64946461 C119.41430633 206.21558786 120.64885493 210.78178487 121.88269043 215.34817505 C123.25305692 220.41982453 124.62436908 225.49121772 125.99609375 230.5625 C126.2113483 231.35868681 126.42660286 232.15487362 126.64838028 232.9751873 C128.88767118 241.25541297 131.13987847 249.53167765 133.43408203 257.796875 C133.62508138 258.48559189 133.81608072 259.17430878 134.01286793 259.88389587 C134.90262637 263.09044869 135.79566462 266.29599692 136.69371033 269.50024414 C136.99982742 270.59973389 137.30594452 271.69922363 137.62133789 272.83203125 C137.88926651 273.78827393 138.15719513 274.7445166 138.4332428 275.72973633 C139 278 139 278 139 280 C121.84 280 104.68 280 87 280 C83.48002425 267.68008488 79.96779886 255.38501437 76.70214844 242.99926758 C76.1069304 240.74403577 75.50669783 238.49017257 74.90625 236.23632812 C74.52314523 234.78913984 74.14032072 233.34187733 73.7578125 231.89453125 C73.57977081 231.22702347 73.40172913 230.55951569 73.21829224 229.8717804 C72 225.22973527 72 225.22973527 72 223 C45.27 223 18.54 223 -9 223 C-9.66 226.63 -10.32 230.26 -11 234 C-11.8916693 237.64329077 -12.80993267 241.26268319 -13.78515625 244.8828125 C-14.17688271 246.35414139 -14.17688271 246.35414139 -14.57652283 247.85519409 C-15.12320429 249.90435261 -15.67201772 251.95294347 -16.22290039 254.00097656 C-17.06925557 257.15013646 -17.9071346 260.30146882 -18.74414062 263.453125 C-19.27814862 265.45065382 -19.81263613 267.44805453 -20.34765625 269.4453125 C-20.59870621 270.38996368 -20.84975616 271.33461487 -21.1084137 272.30789185 C-21.34213181 273.17324554 -21.57584991 274.03859924 -21.81665039 274.93017578 C-22.02157608 275.69419708 -22.22650177 276.45821838 -22.43763733 277.24539185 C-23 279 -23 279 -24 280 C-25.59610982 280.09333705 -27.19633428 280.11745372 -28.79516602 280.11352539 C-29.81614883 280.11344986 -30.83713165 280.11337433 -31.88905334 280.11329651 C-32.9994548 280.10813522 -34.10985626 280.10297394 -35.25390625 280.09765625 C-36.38448959 280.0962413 -37.51507294 280.09482635 -38.67991638 280.09336853 C-42.30747065 280.08775019 -45.93496424 280.07519458 -49.5625 280.0625 C-52.01497307 280.05748736 -54.4674471 280.05292405 -56.91992188 280.04882812 C-62.94663545 280.0377748 -68.97331339 280.02101884 -75 280 C-73.55800025 272.13265698 -71.60785828 264.44671421 -69.52734375 256.7265625 C-69.17339313 255.40449753 -68.81968696 254.0823671 -68.46620178 252.76017761 C-67.49871281 249.14515496 -66.52695603 245.53129204 -65.55426025 241.91766739 C-64.92999199 239.59709066 -64.30695734 237.27618616 -63.68432617 234.95516968 C-55.7448771 205.35962201 -47.70978305 175.7900484 -39.66249466 146.22367382 C-30.1852927 111.40314471 -20.77023608 76.5659987 -11.37566471 41.72309113 C-10.25505137 37.5671631 -9.13409818 33.41132678 -8.01312065 29.25549698 C-7.24326998 26.40066062 -6.4740366 23.54565845 -5.70484924 20.69064331 C-5.23953896 18.96522307 -4.77420336 17.23980966 -4.30883789 15.5144043 C-4.1027742 14.74881101 -3.89671051 13.98321772 -3.68440247 13.19442463 C-3.39378937 12.11763337 -3.39378937 12.11763337 -3.0973053 11.01908875 C-2.93251206 10.40759822 -2.76771883 9.79610769 -2.59793186 9.16608715 C-1.75290463 6.10486437 -0.87243558 3.05352454 0 0 Z M31 68 C27.77448365 80.37855943 24.54939208 92.75722944 21.32483864 105.13603973 C19.82744401 110.88436712 18.32990459 116.63265671 16.83203125 122.38085938 C15.38577841 127.93098648 13.93990987 133.48121358 12.49430466 139.0315094 C11.94346093 141.14615931 11.3924801 143.26077352 10.84135818 145.37535095 C10.06786372 148.34323774 9.29486234 151.31125255 8.52197266 154.27929688 C8.18210579 155.58265991 8.18210579 155.58265991 7.83537292 156.91235352 C7.62226974 157.73110962 7.40916656 158.54986572 7.18960571 159.39343262 C7.0070907 160.09399529 6.82457569 160.79455795 6.63652992 161.51634979 C5.74194284 165.00690272 4.8739446 168.50422161 4 172 C22.15 172 40.3 172 59 172 C55.87210957 158.62449797 55.87210957 158.62449797 52.55810547 145.29907227 C52.3461554 144.4707489 52.13420532 143.64242554 51.91583252 142.78900146 C51.23497275 140.13094584 50.55141881 137.47359584 49.8671875 134.81640625 C49.63063572 133.89672499 49.39408394 132.97704372 49.15036392 132.02949333 C47.90525187 127.18960722 46.65789829 122.35030536 45.40869141 117.51147461 C44.12050224 112.51963883 42.84058236 107.52571922 41.5623455 102.53132725 C40.57354058 98.67410544 39.57862536 94.81847915 38.58200455 90.96327019 C38.10681632 89.12062092 37.63397033 87.27736599 37.16350937 85.4335041 C36.50985898 82.87394683 35.8475938 80.31677133 35.18310547 77.76000977 C34.99086395 76.99909531 34.79862244 76.23818085 34.60055542 75.45420837 C33.55346925 71.32713182 33.55346925 71.32713182 31 68 Z " fill="#FFFFFF" transform="translate(1164,31)"/>
<path d="M0 0 C50.16 0 100.32 0 152 0 C152 17.16 152 34.32 152 52 C117.68 52 83.36 52 48 52 C48 72.46 48 92.92 48 114 C80.34 114 112.68 114 146 114 C146 131.16 146 148.32 146 166 C113.66 166 81.32 166 48 166 C48 186.79 48 207.58 48 229 C82.32 229 116.64 229 152 229 C152 245.83 152 262.66 152 280 C101.84 280 51.68 280 0 280 C0 187.6 0 95.2 0 0 Z " fill="#FFFFFF" transform="translate(507,31)"/>
<path d="M0 0 C1.14210938 0.00161133 2.28421875 0.00322266 3.4609375 0.00488281 C12.67909095 0.13783695 20.65768181 1.36507771 29.375 4.375 C30.76138672 4.82552734 30.76138672 4.82552734 32.17578125 5.28515625 C43.21553733 9.25122725 51.99469072 16.359052 60.375 24.375 C61.06335937 24.98859375 61.75171875 25.6021875 62.4609375 26.234375 C72.19069613 35.23344029 78.32292617 47.29536194 83.375 59.375 C83.7153125 60.17164063 84.055625 60.96828125 84.40625 61.7890625 C85.90356489 65.49075764 86.49715642 68.41170293 86.375 72.375 C80.31496298 75.84608597 74.25156603 79.31123069 68.18505859 82.77099609 C66.40327726 83.78805112 64.62225844 84.80644412 62.84228516 85.82666016 C60.62624321 87.09671282 58.40730975 88.36154789 56.1875 89.625 C55.52363281 90.00712646 54.85976562 90.38925293 54.17578125 90.78295898 C49.60322957 93.375 49.60322957 93.375 47.375 93.375 C46.9728125 92.17617187 46.9728125 92.17617187 46.5625 90.953125 C41.45203191 76.63036574 33.3431784 63.39781797 19.375 56.375 C6.7857885 51.31401045 -3.95103063 51.10917014 -16.625 56.375 C-23.72470953 60.54839447 -26.86278307 67.01075988 -28.9375 74.75 C-30.46581389 82.8500636 -28.98601381 89.49985726 -25.46484375 96.85546875 C-19.44853675 105.0943605 -11.61634559 108.506253 -2.3125 112.125 C-1.0324406 112.63795192 0.24692739 113.15263226 1.52563477 113.66894531 C5.46814516 115.25623164 9.42099516 116.81662059 13.375 118.375 C41.79232096 129.60529435 67.3567166 140.39839406 80.90234375 169.69921875 C89.38165534 190.8637604 90.03820063 218.18160257 81.52929688 239.49316406 C72.72712811 259.96614894 58.94313866 274.97020329 38.5 284.1875 C16.39182918 292.71946683 -8.54330964 291.4483256 -30.125 282.03515625 C-56.39881313 269.57268908 -72.45083271 247.09585539 -82.77734375 220.76220703 C-83.99144215 217.34300939 -84.837339 213.91537208 -85.625 210.375 C-78.87937273 206.05319739 -71.94031967 202.13818158 -64.9375 198.25 C-62.72487764 197.01891688 -60.51262421 195.78717039 -58.30078125 194.5546875 C-57.33052002 194.01569824 -56.36025879 193.47670898 -55.3605957 192.92138672 C-53.5161719 191.87876464 -51.69410662 190.79569975 -49.89526367 189.67626953 C-47.625 188.375 -47.625 188.375 -45.625 188.375 C-45.22410156 189.37917969 -44.82320312 190.38335937 -44.41015625 191.41796875 C-36.19875992 211.40591283 -24.51010134 226.40769977 -4.51171875 235.31640625 C4.50438221 238.17516997 16.90217507 237.6393784 25.33203125 233.55859375 C32.74134986 229.26600572 36.53212757 223.44836573 38.99609375 215.328125 C40.63486806 206.88083476 38.58331011 199.70668521 34.75 192.1875 C27.27998996 183.34143548 15.41567285 179.76658777 5 175.5 C3.37072367 174.82511148 1.74181487 174.14933498 0.11328125 173.47265625 C-3.14436136 172.12046448 -6.40321948 170.77127941 -9.66333008 169.42504883 C-11.31722958 168.74172228 -12.97111938 168.05837225 -14.625 167.375 C-15.91982803 166.84040665 -15.91982803 166.84040665 -17.24081421 166.29501343 C-19.81982448 165.22813053 -22.3964788 164.15573364 -24.97265625 163.08203125 C-25.75212616 162.76070221 -26.53159607 162.43937317 -27.33468628 162.10830688 C-38.01998788 157.64042868 -46.27733658 151.33540068 -54.625 143.375 C-55.25148438 142.83488281 -55.87796875 142.29476562 -56.5234375 141.73828125 C-70.48812603 129.19533703 -76.39346361 108.08656276 -77.49951172 90.02978516 C-78.51192959 65.24556687 -72.75157507 40.99354531 -55.625 22.375 C-40.29111606 6.62598553 -21.64561972 -0.03190687 0 0 Z " fill="#FFFFFF" transform="translate(1550.625,26.625)"/>
<path d="M0 0 C16.74032794 13.40840822 28.62601736 30.90610052 34.71484375 51.46484375 C34.71484375 52.78484375 34.71484375 54.10484375 34.71484375 55.46484375 C32.98095703 56.93774414 32.98095703 56.93774414 30.53515625 58.3125 C29.6337793 58.83046143 28.73240234 59.34842285 27.80371094 59.88208008 C26.82563477 60.42501709 25.84755859 60.9679541 24.83984375 61.52734375 C22.82598733 62.67692286 20.81297954 63.82798976 18.80078125 64.98046875 C17.78338867 65.55861328 16.76599609 66.13675781 15.71777344 66.73242188 C10.45971498 69.76585137 5.31791617 72.98740147 0.17626953 76.21313477 C-5.07156821 79.46484375 -5.07156821 79.46484375 -7.28515625 79.46484375 C-7.70925781 78.43746094 -8.13335938 77.41007812 -8.5703125 76.3515625 C-15.79645592 59.14417833 -24.63344543 43.90224094 -42.70703125 36.46875 C-57.38138324 31.32287824 -72.17284665 32.73870783 -86.265625 38.92578125 C-103.47670684 47.69831197 -113.92274471 63.17673356 -120.16015625 81.02734375 C-130.13857226 113.64644162 -129.2655605 150.6353283 -113.59765625 181.33984375 C-105.30331431 196.66339212 -92.42489089 206.88196069 -76.08203125 212.58203125 C-61.38194762 215.99995193 -46.54757181 213.87466395 -33.59765625 206.33984375 C-20.39439687 197.36693903 -12.47200277 183.27465551 -7.28515625 168.46484375 C-3.98733298 169.116969 -1.52553739 170.33904195 1.35546875 172.0546875 C2.25442871 172.58747314 3.15338867 173.12025879 4.07958984 173.66918945 C5.03172363 174.24113037 5.98385742 174.81307129 6.96484375 175.40234375 C7.9388916 175.98266357 8.91293945 176.5629834 9.91650391 177.16088867 C18.25545006 182.14661865 26.51198991 187.25873451 34.71484375 192.46484375 C34.17131901 197.73023971 32.88378097 202.18266338 30.71484375 207.02734375 C30.40579102 207.71989258 30.09673828 208.41244141 29.77832031 209.12597656 C24.0483311 221.56840111 16.36116262 231.80476408 6.71484375 241.46484375 C5.92464844 242.26664062 5.13445312 243.0684375 4.3203125 243.89453125 C-14.28400933 261.72752962 -38.9633108 269.1701887 -64.33325195 268.86914062 C-93.62979969 267.97275955 -117.83592987 254.06059723 -137.8046875 233.2890625 C-142.64395518 228.08525488 -146.57890353 222.53799592 -150.28515625 216.46484375 C-150.65302246 215.87687012 -151.02088867 215.28889648 -151.39990234 214.68310547 C-160.2584424 200.41666996 -166.20189826 184.94777496 -170.16015625 168.65234375 C-170.44681152 167.47345581 -170.44681152 167.47345581 -170.73925781 166.27075195 C-173.91461832 152.17900915 -174.6633294 138.16084307 -174.59765625 123.77734375 C-174.59583344 122.94512299 -174.59401062 122.11290222 -174.59213257 121.25546265 C-174.54506204 108.46531028 -174.0622756 95.99679626 -171.28515625 83.46484375 C-171.10823242 82.66143555 -170.93130859 81.85802734 -170.74902344 81.03027344 C-162.52728475 44.97674232 -144.49465847 12.82984686 -112.67993164 -7.36035156 C-77.44567068 -28.92126007 -32.13800987 -25.04444268 0 0 Z " fill="#FFFFFF" transform="translate(1041.28515625,47.53515625)"/>
<path d="M0 0 C52.8 0 105.6 0 160 0 C160 17.16 160 34.32 160 52 C141.52 52 123.04 52 104 52 C104 127.24 104 202.48 104 280 C88.49 280 72.98 280 57 280 C57 204.76 57 129.52 57 52 C38.19 52 19.38 52 0 52 C0 34.84 0 17.68 0 0 Z " fill="#FFFFFF" transform="translate(2015,31)"/>
<path d="M0 0 C52.8 0 105.6 0 160 0 C160 17.16 160 34.32 160 52 C141.52 52 123.04 52 104 52 C104 127.24 104 202.48 104 280 C88.49 280 72.98 280 57 280 C57 204.76 57 129.52 57 52 C38.19 52 19.38 52 0 52 C0 34.84 0 17.68 0 0 Z " fill="#FFFFFF" transform="translate(1294,31)"/>
<path d="M0 0 C15.84 0 31.68 0 48 0 C48 75.57 48 151.14 48 229 C79.02 229 110.04 229 142 229 C142 245.83 142 262.66 142 280 C95.14 280 48.28 280 0 280 C0 187.6 0 95.2 0 0 Z " fill="#FFFFFF" transform="translate(1885,31)"/>
<path d="M0 0 C0.01401855 1.14662109 0.01401855 1.14662109 0.02832031 2.31640625 C0.41755585 27.68540508 2.38737482 48.86142936 21 68 C35.00807809 80.72521126 53.17792572 87.87419369 72 89 C72.67933594 89.04125 73.35867188 89.0825 74.05859375 89.125 C95.59895062 89.75737745 116.29275917 81.62220116 132 67 C150.09213274 48.25321772 151.49883297 27.72885516 152 3 C156.61425781 1.796875 156.61425781 1.796875 160.0859375 3.625 C161.1947132 4.39917376 162.29072181 5.19187292 163.375 6 C164.23109863 6.61597046 164.23109863 6.61597046 165.10449219 7.24438477 C175.40153545 14.80307091 175.40153545 14.80307091 178 20 C180.01574044 50.86831605 173.38031393 78.20489943 153 102 C136.21529883 120.99178038 111.33366211 133.36855564 85.9753418 135.22094727 C58.11030125 136.25314814 31.74244195 130.60839627 10 112 C9.21238281 111.35675781 8.42476562 110.71351563 7.61328125 110.05078125 C-10.77312389 94.4353257 -22.68103961 71.92998087 -25.703125 47.96484375 C-26.12348051 42.35088526 -26.41160192 36.75272975 -26.5625 31.125 C-26.6138208 30.04226807 -26.6651416 28.95953613 -26.71801758 27.84399414 C-26.7772793 22.64468543 -26.72629114 19.01330264 -23.015625 15.14453125 C-21.71072009 14.05476423 -20.36975025 13.00705176 -19 12 C-18.29480225 11.45375977 -17.58960449 10.90751953 -16.86303711 10.34472656 C-14.67247423 8.69479977 -12.44328572 7.12178987 -10.1875 5.5625 C-9.42501953 5.02173828 -8.66253906 4.48097656 -7.87695312 3.92382812 C-2.26652378 0 -2.26652378 0 0 0 Z " fill="#FFFFFF" transform="translate(1687,151)"/>
<path d="M0 0 C0.01401855 0.84425537 0.01401855 0.84425537 0.02832031 1.70556641 C0.35764544 17.54868779 1.35095891 31.74384074 11 45 C11.55171875 45.75796875 12.1034375 46.5159375 12.671875 47.296875 C23.36409248 60.54791376 40.62654351 67.92501434 57 71 C61.59263325 71.41830691 66.14038849 71.47805748 70.75 71.4375 C72.59706543 71.42396484 72.59706543 71.42396484 74.48144531 71.41015625 C94.83563974 71.02398972 113.27443784 64.18254188 128.10546875 49.984375 C138.69663994 38.93617391 142.15635069 26.37961566 142.625 11.5 C142.68300781 9.98019531 142.68300781 9.98019531 142.7421875 8.4296875 C142.83563619 5.95329716 142.92139873 3.47689849 143 1 C147.91580359 1.50549992 150.98647912 2.92632456 155.0625 5.6875 C156.06410156 6.35136719 157.06570313 7.01523438 158.09765625 7.69921875 C165.49480883 13.56317954 165.49480883 13.56317954 166.45385742 18.18920898 C166.64008392 20.77222499 166.64109562 23.28650612 166.5625 25.875 C166.54517822 26.80320557 166.52785645 27.73141113 166.51000977 28.68774414 C165.91474877 46.30474321 159.92607695 62.80422664 148 76 C147.13632812 76.95648438 146.27265625 77.91296875 145.3828125 78.8984375 C130.73693306 94.5597712 111.05562181 104.38481676 89.875 107.875 C87.76255408 108.2391204 87.76255408 108.2391204 86 109 C84.16666667 111.83333333 84.16666667 111.83333333 83 115 C80.6304789 117.90457425 78.92199231 118.86144217 75.21875 119.41796875 C66.24651932 119.82882585 66.24651932 119.82882585 62.375 116.875 C59.93829938 113.92530978 58.86147049 111.70432311 58 108 C56.8346875 107.86722656 55.669375 107.73445313 54.46875 107.59765625 C29.58441268 104.45431399 8.12725126 91.73109757 -7.9921875 72.640625 C-18.2810145 59.01364523 -23.11407275 42.53658876 -23.6875 25.6875 C-23.77149048 24.27186768 -23.77149048 24.27186768 -23.85717773 22.82763672 C-23.89943408 18.88906594 -23.86364759 16.12483991 -21.41210938 12.93188477 C-19.36602169 11.09075114 -17.28736526 9.52890565 -15 8 C-14.39148193 7.57565674 -13.78296387 7.15131348 -13.15600586 6.71411133 C-11.51269687 5.61161446 -9.81923133 4.58501844 -8.125 3.5625 C-6.45824219 2.54349609 -6.45824219 2.54349609 -4.7578125 1.50390625 C-2 0 -2 0 0 0 Z " fill="#0E2B20" transform="translate(131,160)"/>
<path d="M0 0 C1.20970459 0.00523682 2.41940918 0.01047363 3.66577148 0.01586914 C4.97094727 0.0190918 6.27612305 0.02231445 7.62084961 0.02563477 C9.00952213 0.03399138 10.39819401 0.04245634 11.78686523 0.05102539 C13.17944179 0.05603873 14.57202005 0.06060193 15.96459961 0.06469727 C19.38456394 0.07653105 22.80444367 0.09301659 26.22436523 0.11352539 C28.04932373 5.58840087 27.4519446 11.51005284 27.47436523 17.23852539 C27.50530273 19.17985352 27.50530273 19.17985352 27.53686523 21.16040039 C27.6030022 37.39702473 27.6030022 37.39702473 21.72436523 43.86352539 C20.89936523 44.60602539 20.07436523 45.34852539 19.22436523 46.11352539 C17.64615134 48.55482501 16.27621359 51.00683743 15.00561523 53.62133789 C7.91415062 68.10695159 -2.91660529 75.7512121 -17.64282227 81.16821289 C-26.32170254 83.9380683 -34.91395963 84.35863624 -43.96313477 84.67602539 C-45.12756104 84.71848389 -46.2919873 84.76094238 -47.49169922 84.8046875 C-60.58583527 85.23891621 -73.67602769 85.21058164 -86.77563477 85.11352539 C-87.05149414 86.02231445 -87.32735352 86.93110352 -87.61157227 87.86743164 C-90.8259038 96.83088636 -98.67516708 104.40066751 -107.15063477 108.55102539 C-115.86928324 111.66868452 -127.51578152 111.68375981 -136.27563477 108.67602539 C-144.45833487 104.67653639 -152.13711267 97.54424732 -155.77563477 89.11352539 C-159.67501308 77.5421995 -160.20348371 66.40418343 -155.15063477 55.11352539 C-150.36497087 46.23346017 -143.11174622 39.28437229 -133.54907227 36.00805664 C-124.56340443 33.87791385 -113.48438249 33.56690171 -105.04516602 37.66430664 C-96.29298049 43.25305161 -88.842306 50.77985224 -85.97094727 60.96899414 C-85.48072504 63.34959386 -85.10634665 65.70726108 -84.77563477 68.11352539 C-83.65543945 67.95754883 -82.53524414 67.80157227 -81.38110352 67.64086914 C-76.76318215 67.12736567 -72.15586137 66.96778739 -67.51391602 66.86743164 C-66.75642059 66.85078461 -65.99892517 66.83413757 -65.21847534 66.81698608 C-62.05183136 66.75065665 -58.8851661 66.68924493 -55.71826172 66.63671875 C-29.66454662 66.43175609 -29.66454662 66.43175609 -7.47875977 54.13696289 C-4.48148615 50.57598186 -1.72207314 46.71762784 -0.77563477 42.11352539 C-1.25315186 41.24066895 -1.73066895 40.3678125 -2.22265625 39.46850586 C-4.05645601 35.50685261 -4.17583695 32.17665587 -4.10375977 27.90649414 C-4.1018866 27.14049393 -4.10001343 26.37449371 -4.0980835 25.58528137 C-4.09139575 23.97754518 -4.07754698 22.36982435 -4.05688477 20.76220703 C-4.0255109 18.2912702 -4.01588813 15.82097052 -4.01000977 13.34985352 C-4.00084771 11.78539254 -3.99047449 10.22093808 -3.97875977 8.65649414 C-3.97450989 7.91489548 -3.97026001 7.17329681 -3.96588135 6.40922546 C-3.87773443 0.15860203 -3.87773443 0.15860203 0 0 Z " fill="#FDFDFD" transform="translate(1751.775634765625,289.886474609375)"/>
<path d="M0 0 C44.88 0 89.76 0 136 0 C136 16.5 136 33 136 50 C91.12 50 46.24 50 0 50 C0 33.5 0 17 0 0 Z " fill="#FFFFFF" transform="translate(691,183)"/>
<path d="M0 0 C13.55810124 6.69452381 23.34685173 14.97495346 30.1328125 28.546875 C31.33355087 37.87919602 29.26722312 44.7434756 24.1328125 52.546875 C20.19971644 57.44977557 15.38752307 61.14676816 10.1328125 64.546875 C9.4728125 64.546875 8.8128125 64.546875 8.1328125 64.546875 C8.17921875 65.28550781 8.225625 66.02414062 8.2734375 66.78515625 C8.61783072 76.46506579 7.07417635 84.40753943 0.7578125 91.984375 C-5.33058139 98.33240189 -11.68817135 101.70513067 -20.57617188 101.97875977 C-29.69868868 102.0038576 -36.18398003 100.84450107 -43.14453125 94.45703125 C-49.89554623 87.31536079 -52.44514598 80.68057145 -52.99609375 70.8984375 C-52.69662509 63.11225243 -49.38101962 55.13050246 -43.8671875 49.546875 C-36.43137872 43.49740345 -29.29639781 41.03315668 -19.70703125 41.23046875 C-12.49932275 42.03352843 -5.0813603 45.45180767 0.1328125 50.546875 C2.01231532 53.10853239 3.62729186 55.7509081 5.1328125 58.546875 C12.38729437 56.50655197 17.60550596 50.78424095 21.6328125 44.671875 C24.28547401 39.84752906 25.49541223 35.96946575 24.1328125 30.546875 C18.78623626 17.7110871 6.95832568 9.96600533 -5.31640625 4.4453125 C-12.0784738 1.91986319 -18.48766796 1.37258193 -25.3046875 3.984375 C-43.50481863 13.03679624 -52.40792169 34.6342445 -61.6171875 51.59375 C-77.26881386 80.37851909 -77.26881386 80.37851909 -89.72265625 84.1015625 C-99.22013848 86.07371728 -108.41079876 83.92514986 -116.5546875 78.859375 C-124.9028485 72.83750931 -130.18583106 65.55727238 -132.8671875 55.546875 C-133.95157495 48.36611419 -134.66990964 40.63295974 -132.8671875 33.546875 C-131.2171875 33.546875 -129.5671875 33.546875 -127.8671875 33.546875 C-127.85300781 34.85140625 -127.83882812 36.1559375 -127.82421875 37.5 C-127.54867735 49.85087736 -126.84621157 60.49896045 -118.1171875 70.046875 C-111.82340603 75.78041456 -103.63606032 79.06561614 -95.07421875 78.875 C-87.43347061 77.73903036 -82.38432964 72.5890972 -77.94921875 66.640625 C-71.78038937 57.47418435 -66.51674473 47.78751741 -61.29516602 38.06054688 C-56.6537176 29.42705881 -52.14151782 21.12198112 -45.8671875 13.546875 C-44.79210937 12.21269531 -44.79210937 12.21269531 -43.6953125 10.8515625 C-39.01407249 5.31478553 -34.52225009 1.46150095 -27.8671875 -1.453125 C-27.07828125 -1.81535156 -26.289375 -2.17757812 -25.4765625 -2.55078125 C-16.87386334 -5.52566674 -8.10021396 -3.47430864 0 0 Z " fill="#0F2C22" transform="translate(332.8671875,247.453125)"/>
<path d="M0 0 C9.53752351 5.59693491 20.3482039 13.04461171 24 24 C25.25000321 30.64950161 23.44134203 35.08615465 19.78125 40.63671875 C16.04551387 45.59312305 11.76674048 50.43700423 6 53 C2.50134518 51.83378173 2.40329489 51.34701719 0.75 48.25 C-3.11473643 41.82027481 -8.42340338 38.62398709 -15.546875 36.50390625 C-25.15829169 34.52958658 -33.96474345 36.15811653 -42.1875 41.4375 C-50.18224918 47.88436361 -52.88076312 58.19702867 -54 68 C-54.66 68 -55.32 68 -56 68 C-56 71.96 -56 75.92 -56 80 C-58.475 80.495 -58.475 80.495 -61 81 C-61.33 82.65 -61.66 84.3 -62 86 C-63.485 86.495 -63.485 86.495 -65 87 C-65 87.99 -65 88.98 -65 90 C-64.236875 89.773125 -63.47375 89.54625 -62.6875 89.3125 C-61.800625 89.209375 -60.91375 89.10625 -60 89 C-58.1875 90.4375 -58.1875 90.4375 -57 92 C-57.66 93.32 -58.32 94.64 -59 96 C-63.8412726 95.52536543 -66.93865112 94.63438847 -71 92 C-72.051875 91.814375 -72.051875 91.814375 -73.125 91.625 C-75.99830615 90.66723128 -76.66933933 88.59478832 -78 86 C-77.34 85.01 -76.68 84.02 -76 83 C-76.19667058 80.66532542 -76.19667058 80.66532542 -76.875 78.1875 C-77.16310547 76.84945312 -77.16310547 76.84945312 -77.45703125 75.484375 C-77.63621094 74.66453125 -77.81539063 73.8446875 -78 73 C-78.5625 69.9375 -78.5625 69.9375 -78 67 C-77.0321391 65.70078142 -76.00996511 64.44164241 -74.9609375 63.20703125 C-70.16183862 57.18428683 -66.67745147 50.51289548 -63.0625 43.75 C-40.65510884 2.08430585 -40.65510884 2.08430585 -24.26953125 -4.3359375 C-15.52414257 -6.8948292 -7.93671345 -3.9001719 0 0 Z " fill="#7BB1DE" transform="translate(334,254)"/>
<path d="M0 0 C1.54204102 0.00966797 1.54204102 0.00966797 3.11523438 0.01953125 C4.18708984 0.03628906 5.25894531 0.05304687 6.36328125 0.0703125 C7.44673828 0.07933594 8.53019531 0.08835937 9.64648438 0.09765625 C12.32313835 0.1212391 14.99934922 0.15415124 17.67578125 0.1953125 C18.00578125 1.5153125 18.33578125 2.8353125 18.67578125 4.1953125 C19.31080566 4.17960205 19.94583008 4.1638916 20.60009766 4.14770508 C23.50023355 4.0850266 26.40022649 4.04621833 29.30078125 4.0078125 C30.79931641 3.97010742 30.79931641 3.97010742 32.328125 3.93164062 C39.36713073 3.86171673 43.74749305 4.69555428 49.23828125 9.3828125 C58.19738693 19.72024213 60.84030041 30.81244162 60.78930664 44.21801758 C60.78945267 45.22336548 60.78959869 46.22871338 60.78974915 47.26452637 C60.78905353 50.58132092 60.7812775 53.89805903 60.7734375 57.21484375 C60.77157208 59.51698272 60.77014876 61.81912209 60.76914978 64.1212616 C60.76533441 70.1760264 60.75551245 76.23076715 60.7444458 82.28552246 C60.73421064 88.46573562 60.72964765 94.64595268 60.72460938 100.82617188 C60.71388933 112.94922931 60.69682464 125.0722689 60.67578125 137.1953125 C56.57094565 135.60063426 53.18543955 133.6706856 49.54296875 131.21875 C47.59220438 129.95498719 47.59220438 129.95498719 44.67578125 130.1953125 C44.66991501 129.21527252 44.66404877 128.23523254 44.65800476 127.22549438 C44.60061425 117.95728064 44.52776824 108.68929785 44.44006634 99.42131996 C44.39547477 94.65736227 44.35619433 89.89348788 44.3293457 85.12939453 C44.30320035 80.52563705 44.26271968 75.92220211 44.21259499 71.31864548 C44.19600186 69.56856699 44.18444081 67.8184328 44.17816734 66.0682869 C44.1338723 54.83971582 43.79638817 44.62625741 37.80078125 34.7578125 C37.32898437 33.95472656 36.8571875 33.15164062 36.37109375 32.32421875 C32.9794082 28.06507445 29.10793412 26.82926415 23.86328125 26.0078125 C22.88746094 25.84925781 21.91164063 25.69070312 20.90625 25.52734375 C19.80216797 25.36298828 19.80216797 25.36298828 18.67578125 25.1953125 C18.34578125 26.8453125 18.01578125 28.4953125 17.67578125 30.1953125 C13.94702737 30.34091445 10.21900691 30.42948293 6.48828125 30.5078125 C5.43318359 30.54970703 4.37808594 30.59160156 3.29101562 30.63476562 C-4.57772509 30.75887825 -4.57772509 30.75887825 -8.48046875 27.8125 C-12.46972397 22.14978602 -13.18569728 17.03524448 -12.32421875 10.1953125 C-10.06771712 3.49250223 -7.47350299 -0.08258014 0 0 Z " fill="#FFFFFF" transform="translate(1801.32421875,23.8046875)"/>
<path d="M0 0 C3.56206722 -0.14567407 7.12336551 -0.23419196 10.6875 -0.3125 C12.19860352 -0.3753418 12.19860352 -0.3753418 13.74023438 -0.43945312 C21.23526282 -0.56313346 21.23526282 -0.56313346 25.08203125 2.26953125 C29.43901374 8.47224155 29.81963244 13.44555642 29 21 C27.5665882 25.10252343 25.65995207 27.56003195 22 30 C19.67163086 30.25878906 19.67163086 30.25878906 16.96484375 30.265625 C15.50401367 30.26949219 15.50401367 30.26949219 14.01367188 30.2734375 C12.99853516 30.26570313 11.98339844 30.25796875 10.9375 30.25 C9.91849609 30.25773437 8.89949219 30.26546875 7.84960938 30.2734375 C6.87701172 30.27085938 5.90441406 30.26828125 4.90234375 30.265625 C4.01023193 30.26336914 3.11812012 30.26111328 2.19897461 30.25878906 C0 30 0 30 -2 28 C-2 27.01 -2 26.02 -2 25 C-11.43708925 26.26654015 -11.43708925 26.26654015 -19.0625 31.5 C-25.18257882 39.71578819 -27.12313289 49.61082421 -27.20532227 59.63598633 C-27.22017166 60.76361893 -27.22017166 60.76361893 -27.23532104 61.91403198 C-27.26678432 64.38666691 -27.29163314 66.85932101 -27.31640625 69.33203125 C-27.3369889 71.05124904 -27.35798571 72.77046191 -27.37937927 74.4896698 C-27.4344646 79.00560518 -27.48393337 83.52158521 -27.53222656 88.03759766 C-27.58254068 92.64945428 -27.63817493 97.26124641 -27.69335938 101.87304688 C-27.80077526 110.91530943 -27.90225676 119.95762808 -28 129 C-28.67546875 129.32613281 -29.3509375 129.65226563 -30.046875 129.98828125 C-30.93890625 130.42527344 -31.8309375 130.86226562 -32.75 131.3125 C-34.07257813 131.95638672 -34.07257813 131.95638672 -35.421875 132.61328125 C-38.01660815 133.92366072 -38.01660815 133.92366072 -40.203125 135.66796875 C-42 137 -42 137 -44 137 C-44.09306729 123.95997411 -44.16395053 110.92002846 -44.20724869 97.8797369 C-44.22803952 91.8232689 -44.25620062 85.76702972 -44.30175781 79.71069336 C-44.34552025 73.85568077 -44.3692009 68.00088698 -44.37950897 62.14572334 C-44.3868461 59.92242557 -44.40117228 57.69913849 -44.42292023 55.47593498 C-44.72606029 23.17484094 -44.72606029 23.17484094 -34 11 C-30.27698717 7.26906587 -27.15375632 4.15170132 -21.63989258 3.88647461 C-20.73392334 3.89171143 -19.8279541 3.89694824 -18.89453125 3.90234375 C-17.91162109 3.90556641 -16.92871094 3.90878906 -15.91601562 3.91210938 C-14.37977539 3.92467773 -14.37977539 3.92467773 -12.8125 3.9375 C-11.25885742 3.94426758 -11.25885742 3.94426758 -9.67382812 3.95117188 C-7.11582734 3.9629599 -4.55794267 3.97941485 -2 4 C-1.34 2.68 -0.68 1.36 0 0 Z " fill="#FFFFFF" transform="translate(1708,24)"/>
<path d="M0 0 C0 1.65 0 3.3 0 5 C-0.66 5.33 -1.32 5.66 -2 6 C-2.33 7.32 -2.66 8.64 -3 10 C2.94 10.99 2.94 10.99 9 12 C9 15.66666667 9 19.33333333 9 23 C9.66 23.33 10.32 23.66 11 24 C9.79618552 26.49361571 8.54571278 28.68143083 7 31 C6.01 31.33 5.02 31.66 4 32 C3.67 32.99 3.34 33.98 3 35 C2.32453125 34.88140625 1.6490625 34.7628125 0.953125 34.640625 C-1.73927707 34.25154956 -4.27833448 33.95285304 -7 34 C-9.46172153 35.792191 -9.46172153 35.792191 -11 38 C-11.99 38 -12.98 38 -14 38 C-14.495 34.535 -14.495 34.535 -15 31 C-16.27445454 31.42683632 -17.54445882 31.86697202 -18.8125 32.3125 C-19.52019531 32.55613281 -20.22789062 32.79976563 -20.95703125 33.05078125 C-23.06850869 33.88969735 -23.06850869 33.88969735 -24.5625 35.5625 C-26.72911388 37.72911388 -29.04289358 37.67143262 -32 38 C-31.855625 39.010625 -31.71125 40.02125 -31.5625 41.0625 C-31.376875 42.361875 -31.19125 43.66125 -31 45 C-30.814375 46.134375 -30.62875 47.26875 -30.4375 48.4375 C-29.4646232 56.35949683 -30.40002699 63.22870252 -32 71 C-32.66 71 -33.32 71 -34 71 C-34 74.96 -34 78.92 -34 83 C-36.475 83.495 -36.475 83.495 -39 84 C-39.33 85.65 -39.66 87.3 -40 89 C-41.485 89.495 -41.485 89.495 -43 90 C-43 90.99 -43 91.98 -43 93 C-42.236875 92.773125 -41.47375 92.54625 -40.6875 92.3125 C-39.800625 92.209375 -38.91375 92.10625 -38 92 C-36.1875 93.4375 -36.1875 93.4375 -35 95 C-35.66 96.32 -36.32 97.64 -37 99 C-41.8412726 98.52536543 -44.93865112 97.63438847 -49 95 C-50.051875 94.814375 -50.051875 94.814375 -51.125 94.625 C-53.99830615 93.66723128 -54.66933933 91.59478832 -56 89 C-55.34 88.01 -54.68 87.02 -54 86 C-54.19667058 83.66532542 -54.19667058 83.66532542 -54.875 81.1875 C-55.16310547 79.84945312 -55.16310547 79.84945312 -55.45703125 78.484375 C-55.63621094 77.66453125 -55.81539063 76.8446875 -56 76 C-56.5625 72.9375 -56.5625 72.9375 -56 70 C-55.0321391 68.70078142 -54.00996511 67.44164241 -52.9609375 66.20703125 C-48.16183862 60.18428683 -44.67745147 53.51289548 -41.0625 46.75 C-15.5491676 -0.69107412 -15.5491676 -0.69107412 0 0 Z " fill="#FAFBFC" transform="translate(312,251)"/>
<path d="M0 0 C13.55810124 6.69452381 23.34685173 14.97495346 30.1328125 28.546875 C31.33453693 37.88685981 29.25887017 44.73303931 24.1328125 52.546875 C19.76941912 58.1257851 14.10531708 61.84961026 8.1328125 65.546875 C7.4728125 64.226875 6.8128125 62.906875 6.1328125 61.546875 C8.47181737 58.33074331 10.93641316 55.84238366 14.0078125 53.359375 C19.54408348 48.57993507 24.29746376 42.57658839 24.8828125 35.046875 C24.27858351 27.4335897 19.37899098 21.42726289 14.0078125 16.359375 C4.92454112 8.80527389 -6.39139913 1.65985941 -18.62109375 2.2109375 C-28.32646727 3.6625238 -35.46516536 10.38521188 -41.6328125 17.6171875 C-49.38069032 28.1106725 -55.40326252 40.15037361 -61.6171875 51.59375 C-77.26881386 80.37851909 -77.26881386 80.37851909 -89.72265625 84.1015625 C-99.22013848 86.07371728 -108.41079876 83.92514986 -116.5546875 78.859375 C-124.9028485 72.83750931 -130.18583106 65.55727238 -132.8671875 55.546875 C-133.95157495 48.36611419 -134.66990964 40.63295974 -132.8671875 33.546875 C-131.2171875 33.546875 -129.5671875 33.546875 -127.8671875 33.546875 C-127.85300781 34.85140625 -127.83882812 36.1559375 -127.82421875 37.5 C-127.54867735 49.85087736 -126.84621157 60.49896045 -118.1171875 70.046875 C-111.82340603 75.78041456 -103.63606032 79.06561614 -95.07421875 78.875 C-87.43347061 77.73903036 -82.38432964 72.5890972 -77.94921875 66.640625 C-71.78038937 57.47418435 -66.51674473 47.78751741 -61.29516602 38.06054688 C-56.6537176 29.42705881 -52.14151782 21.12198112 -45.8671875 13.546875 C-44.79210937 12.21269531 -44.79210937 12.21269531 -43.6953125 10.8515625 C-39.01407249 5.31478553 -34.52225009 1.46150095 -27.8671875 -1.453125 C-27.07828125 -1.81535156 -26.289375 -2.17757812 -25.4765625 -2.55078125 C-16.87386334 -5.52566674 -8.10021396 -3.47430864 0 0 Z " fill="#060707" transform="translate(332.8671875,247.453125)"/>
<path d="M0 0 C4.47714116 2.24838887 7.75750635 5.80787705 9.78125 10.33203125 C11.53151729 17.47355396 11.002775 23.7292362 7.78125 30.33203125 C4.71640089 35.19351605 1.24755524 37.50973256 -4.359375 38.83984375 C-9.79316914 39.70851152 -13.40195135 39.27563043 -18.21875 36.33203125 C-24.09919342 30.67504468 -26.36396597 26.78688386 -26.53125 18.51953125 C-26.47329769 12.88077112 -26.29807266 9.51595193 -22.21875 5.33203125 C-21.76757812 4.77773438 -21.31640625 4.2234375 -20.8515625 3.65234375 C-15.32466698 -2.31450365 -7.48715005 -2.25405398 0 0 Z " fill="#020202" transform="translate(1638.21875,343.66796875)"/>
<path d="M0 0 C3.46236126 2.39067801 5.74528805 5.0530761 7.625 8.8125 C8.30743922 16.18508109 8.39168165 21.94581489 3.625 27.8125 C-0.60468419 31.48333991 -4.77282958 32.41956319 -10.3046875 32.12890625 C-16.096252 31.24378035 -19.05302637 27.24179817 -22.375 22.8125 C-24.08117588 17.69397237 -24.62108835 11.68729305 -22.43359375 6.640625 C-16.86968563 -1.52209914 -9.21193726 -3.24123718 0 0 Z " fill="#FBFBFB" transform="translate(318.375,304.1875)"/>
<path d="M0 0 C12.63702398 -0.64866853 23.32513953 2.20660865 32.97265625 10.74609375 C45.16589435 23.63608831 47.69163142 41.39728316 47.21875 58.51953125 C45.90743563 79.38347959 41.91246531 100.26270544 35 120 C33.35 119.67 31.7 119.34 30 119 C30.64630879 113.61646089 31.85646578 108.59076757 33.3125 103.375 C34.22805524 99.92163692 35.11779202 96.46201764 36 93 C36.20625 92.20319824 36.4125 91.40639648 36.625 90.58544922 C39.53731095 78.95776036 40.41053323 67.50761232 40.5 55.5625 C40.51044342 54.89239899 40.52088684 54.22229797 40.53164673 53.53189087 C40.70043674 39.68962388 38.54391871 26.55467996 29 16 C20.83621531 8.29430342 11.84132389 6.53585422 1 5 C0.67 3.35 0.34 1.7 0 0 Z " fill="#040607" transform="translate(256,46)"/>
<path d="M0 0 C0 1.65 0 3.3 0 5 C-0.89460938 5.08636719 -1.78921875 5.17273437 -2.7109375 5.26171875 C-13.36886751 6.50022021 -23.43678742 9.16644754 -30.48828125 17.828125 C-41.86839798 33.5287327 -41.96255868 55.28068315 -39.25 73.8125 C-38.85742037 75.87972002 -38.43834685 77.94199869 -38 80 C-37.71597776 81.46716408 -37.43355283 82.93463788 -37.15234375 84.40234375 C-35.4036704 93.30080548 -33.28392442 102.00026903 -30.57495117 110.65722656 C-29.67187449 113.56040359 -29 115.93785294 -29 119 C-31.475 119.495 -31.475 119.495 -34 120 C-38.20282406 107.51671833 -41.34683113 94.89891676 -44 82 C-44.25007813 80.79988281 -44.50015625 79.59976563 -44.7578125 78.36328125 C-46.09135024 70.72830813 -46.19734001 63.1058261 -46.25 55.375 C-46.2641394 53.81881958 -46.2641394 53.81881958 -46.27856445 52.23120117 C-46.2113487 36.21736513 -43.14077107 22.75863632 -32.03515625 10.90234375 C-22.62769393 1.80109178 -12.90117205 -0.93637539 0 0 Z " fill="#020304" transform="translate(149,46)"/>
<path d="M0 0 C0.82757813 0.01417969 1.65515625 0.02835938 2.5078125 0.04296875 C8.56696429 0.19196429 8.56696429 0.19196429 9.75 1.375 C9.82325168 4.23767567 9.84238205 7.075719 9.8125 9.9375 C9.80798828 10.74380859 9.80347656 11.55011719 9.79882812 12.38085938 C9.78700518 14.37893756 9.76906914 16.37697783 9.75 18.375 C6.76284862 19.86857569 3.71112064 19.60003435 0.4375 19.625 C-0.87863281 19.65078125 -2.19476563 19.6765625 -3.55078125 19.703125 C-7.41591501 19.36028315 -9.22178741 18.73579233 -12.25 16.375 C-14.36212504 13.20681244 -14.58156464 11.24280748 -14.80859375 7.5078125 C-12.78685756 -0.21154384 -6.63145088 -0.30525726 0 0 Z " fill="#0D2A1F" transform="translate(245.25,37.625)"/>
<path d="M0 0 C3.06463399 -0.16240455 6.12064274 -0.28104814 9.1875 -0.375 C10.05181641 -0.42527344 10.91613281 -0.47554687 11.80664062 -0.52734375 C18.07235953 -0.67138327 18.07235953 -0.67138327 20.70922852 1.23706055 C23.10558215 3.97446826 23.99439715 5.9645153 24.5625 9.5625 C23.91122095 13.54253862 22.871325 15.21071286 20 18 C16.25976998 19.24674334 12.7683914 19.14552755 8.875 19.125 C8.13378906 19.12886719 7.39257812 19.13273437 6.62890625 19.13671875 C1.1266598 19.1266598 1.1266598 19.1266598 0 18 C-0.08631874 16.65732587 -0.10706473 15.31025678 -0.09765625 13.96484375 C-0.09443359 13.15595703 -0.09121094 12.34707031 -0.08789062 11.51367188 C-0.07951172 10.66353516 -0.07113281 9.81339844 -0.0625 8.9375 C-0.05798828 8.08349609 -0.05347656 7.22949219 -0.04882812 6.34960938 C-0.03700373 4.23304337 -0.01906769 2.11651315 0 0 Z " fill="#0E2B20" transform="translate(151,38)"/>
<path d="M0 0 C-0.33 5.94 -0.66 11.88 -1 18 C-1.33 18 -1.66 18 -2 18 C-2.33 15.03 -2.66 12.06 -3 9 C-6.3 9 -9.6 9 -13 9 C-12.01 8.01 -11.02 7.02 -10 6 C-10.23283149 2.85078091 -10.23283149 2.85078091 -11 0 C-6.68380697 -0.90338924 -4.49202386 -0.89840477 0 0 Z " fill="#E1E4E5" transform="translate(152,37)"/>
<path d="M0 0 C0.33 0 0.66 0 1 0 C1 2.31 1 4.62 1 7 C1.66 7.33 2.32 7.66 3 8 C-2.01924306 11.34616204 -5.85888152 12.97852987 -12 12 C-15.06940341 11.16332462 -18.03577214 10.15275528 -21 9 C-21 8.67 -21 8.34 -21 8 C-19.90300781 8.00902344 -18.80601562 8.01804687 -17.67578125 8.02734375 C-9.82431643 8.23744852 -9.82431643 8.23744852 -2.859375 5.375 C-1.37323587 3.2682694 -1.37323587 3.2682694 0 0 Z " fill="#78AAD2" transform="translate(244,315)"/>
</svg>
